<svg width="28" height="28" viewBox="0 0 28 28" fill="none" xmlns="http://www.w3.org/2000/svg">
<path d="M13.9948 25.6654C20.4381 25.6654 25.6615 20.442 25.6615 13.9987C25.6615 7.55538 20.4381 2.33203 13.9948 2.33203C7.55147 2.33203 2.32812 7.55538 2.32812 13.9987C2.32812 20.442 7.55147 25.6654 13.9948 25.6654Z" stroke="#656F7D" stroke-width="1.5"/>
<path d="M11.8125 10.3532C11.8126 9.97014 11.9132 9.59378 12.1044 9.26181C12.2956 8.92984 12.5706 8.6539 12.9019 8.4616C13.2332 8.26929 13.6092 8.16737 13.9923 8.16603C14.3754 8.16469 14.7521 8.26397 15.0848 8.45394C15.4175 8.64392 15.6944 8.91793 15.8879 9.24855C16.0814 9.57917 16.1847 9.95481 16.1874 10.3379C16.1902 10.721 16.0923 11.098 15.9035 11.4314C15.7147 11.7647 15.4417 12.0427 15.1118 12.2374C14.5577 12.5652 14 13.0634 14 13.7074V15.1657" stroke="#656F7D" stroke-width="1.5" stroke-linecap="round"/>
<path d="M13.9948 19.8333C14.6391 19.8333 15.1615 19.311 15.1615 18.6667C15.1615 18.0223 14.6391 17.5 13.9948 17.5C13.3505 17.5 12.8281 18.0223 12.8281 18.6667C12.8281 19.311 13.3505 19.8333 13.9948 19.8333Z" fill="#656F7D"/>
</svg>
