<svg width="24" height="24" viewBox="0 0 24 24" fill="none" xmlns="http://www.w3.org/2000/svg">
<circle cx="2.27032" cy="2.27032" r="2.27032" transform="matrix(1 0 0 -1 6.48438 11.0312)" fill="#1EBEA5"/>
<circle cx="2.27032" cy="2.27032" r="2.27032" transform="matrix(1 0 0 -1 12.9766 11.0312)" fill="#2A2E34"/>
<circle cx="2.27032" cy="2.27032" r="2.27032" transform="matrix(1 0 0 -1 19.4609 11.0312)" fill="#2A2E34"/>
<circle cx="2.27032" cy="2.27032" r="2.27032" transform="matrix(1 0 0 -1 0 11.0312)" fill="#1EBEA5"/>
<circle cx="2.27032" cy="2.27032" r="2.27032" transform="matrix(1 0 0 -1 6.48438 4.54102)" fill="#1EBEA5"/>
<circle cx="2.27032" cy="2.27032" r="2.27032" transform="matrix(1 0 0 -1 12.9766 4.54102)" fill="#1EBEA5"/>
<circle cx="2.27032" cy="2.27032" r="2.27032" transform="matrix(1 0 0 -1 6.48438 17.5137)" fill="#1EBEA5"/>
<circle cx="2.27032" cy="2.27032" r="2.27032" transform="matrix(1 0 0 -1 12.9766 17.5137)" fill="#2A2E34"/>
<circle cx="2.27032" cy="2.27032" r="2.27032" transform="matrix(1 0 0 -1 19.4609 17.5137)" fill="#2A2E34"/>
<circle cx="2.27032" cy="2.27032" r="2.27032" transform="matrix(1 0 0 -1 0 17.5137)" fill="#1EBEA5"/>
<circle cx="2.27032" cy="2.27032" r="2.27032" transform="matrix(1 0 0 -1 6.48438 24)" fill="#1EBEA5"/>
<circle cx="2.27032" cy="2.27032" r="2.27032" transform="matrix(1 0 0 -1 12.9766 24)" fill="#2A2E34"/>
</svg>
