<svg width="36" height="36" viewBox="0 0 36 36" fill="none" xmlns="http://www.w3.org/2000/svg">
<circle cx="18" cy="18" r="18" fill="#EAAE4E"/>
<path d="M13.304 14.2727H14.8722V20.4091C14.8693 20.9716 14.75 21.456 14.5142 21.8622C14.2784 22.2656 13.9489 22.5767 13.5256 22.7955C13.1051 23.0114 12.6151 23.1193 12.0554 23.1193C11.544 23.1193 11.0838 23.0284 10.6747 22.8466C10.2685 22.6619 9.94602 22.3892 9.70739 22.0284C9.46875 21.6676 9.34943 21.2187 9.34943 20.6818H10.9219C10.9247 20.9176 10.9759 21.1207 11.0753 21.2912C11.1776 21.4616 11.3182 21.5923 11.4972 21.6832C11.6761 21.7741 11.8821 21.8196 12.1151 21.8196C12.3679 21.8196 12.5824 21.767 12.7585 21.6619C12.9347 21.554 13.0682 21.3949 13.1591 21.1847C13.2528 20.9744 13.3011 20.7159 13.304 20.4091V14.2727ZM16.5874 14.2727H18.522L21.1129 20.5966H21.2152L23.8061 14.2727H25.7408V23H24.2237V17.0043H24.1428L21.7308 22.9744H20.5973L18.1854 16.9915H18.1044V23H16.5874V14.2727Z" fill="white"/>
</svg>
